# xmcd CD database file
#
# Track frame offsets:
#	150
#	15802
#	28605
#	46072
#	62910
#	86912
#	106285
#	120417
#	132785
#	145782
#	160000
#	171130
#	187545
#	206775
#
# Disc length: 2966 seconds
#
# Revision: 0
# Processed by: cddbd v1.4PL0 Copyright (c) Steve Scherf et al.
# Submitted via: CD2WAV32(EN) R3.19
#
DISCID=a90b940e
DTITLE=aselin debison - sweet is the melody
DYEAR=1900
DGENRE=
TTITLE0=sweet is the melody
TTITLE1=the dance you choose
TTITLE2=rise again
TTITLE3=moonlight shadow
TTITLE4=medley:somewhere over the rainbow/what a wonderful world
TTITLE5=out of the woods
TTITLE6=driftwood
TTITLE7=some days
TTITLE8=once in every life
TTITLE9=love so rare
TTITLE10=getting dark again
TTITLE11=to say goodbye to you
TTITLE12=the island
TTITLE13=the gift
EXTD=
EXTT0=
EXTT1=
EXTT2=
EXTT3=
EXTT4=
EXTT5=
EXTT6=
EXTT7=
EXTT8=
EXTT9=
EXTT10=
EXTT11=
EXTT12=
EXTT13=
PLAYORDER=
